HIERARCHY
ROOT Hips
{
	OFFSET 0.000000 83.214638 0.000000
	CHANNELS 6 Xposition Yposition Zposition Xrotation Yrotation Zrotation
	JOINT Pelvis
	{
		OFFSET 0.000000 0.000000 0.000000
		CHANNELS 3 Xrotation Yrotation Zrotation
		JOINT LeftUpLeg
		{
			OFFSET 8.479700 -4.795502 -0.379100
			CHANNELS 3 Xrotation Yrotation Zrotation
			JOINT LeftLeg
			{
				OFFSET 0.024144 -32.555107 0.112900
				CHANNELS 3 Xrotation Yrotation Zrotation
				JOINT LeftFoot
				{
					OFFSET -0.024144 -32.638630 -3.012600
					CHANNELS 3 Xrotation Yrotation Zrotation
					JOINT LeftToeBase
					{
						OFFSET 0.970200 -13.225400 11.864200
						CHANNELS 3 Xrotation Yrotation Zrotation
						End Site
						{
							OFFSET 0.000000 12.319262 0.000000
						}
					}
					JOINT LFootTongue
					{
						OFFSET 1.142400 -1.059800 6.665200
						CHANNELS 3 Xrotation Yrotation Zrotation
						End Site
						{
							OFFSET 0.000000 12.319262 0.000000
						}
					}
				}
				JOINT LeftPantLeg
				{
					OFFSET 0.918482 -16.533964 -2.284700
					CHANNELS 3 Xrotation Yrotation Zrotation
					End Site
					{
						OFFSET 0.350399 24.744368 0.000000
					}
				}
			}
		}
		JOINT RightUpLeg
		{
			OFFSET -8.479700 -4.795502 -0.379100
			CHANNELS 3 Xrotation Yrotation Zrotation
			JOINT RightLeg
			{
				OFFSET -0.023144 -32.555092 0.112900
				CHANNELS 3 Xrotation Yrotation Zrotation
				JOINT RightFoot
				{
					OFFSET 0.023144 -32.638641 -3.012700
					CHANNELS 3 Xrotation Yrotation Zrotation
					JOINT RightToeBase
					{
						OFFSET -0.970200 -13.225400 11.864200
						CHANNELS 3 Xrotation Yrotation Zrotation
						End Site
						{
							OFFSET 0.000000 12.319244 0.000000
						}
					}
					JOINT RFootTongue
					{
						OFFSET -1.142200 -1.059800 6.665200
						CHANNELS 3 Xrotation Yrotation Zrotation
						End Site
						{
							OFFSET 0.000000 12.319243 0.000000
						}
					}
				}
				JOINT RightPantLeg
				{
					OFFSET -0.919482 -16.533978 -2.284800
					CHANNELS 3 Xrotation Yrotation Zrotation
					End Site
					{
						OFFSET -0.350400 24.744419 0.000000
					}
				}
			}
		}
	}
	JOINT Spine
	{
		OFFSET 0.000000 7.722000 1.166200
		CHANNELS 3 Xrotation Yrotation Zrotation
		JOINT Spine1
		{
			OFFSET 0.000000 12.024101 0.248800
			CHANNELS 3 Xrotation Yrotation Zrotation
			JOINT Spine2
			{
				OFFSET 0.000000 11.502998 -0.491200
				CHANNELS 3 Xrotation Yrotation Zrotation
				JOINT Neck
				{
					OFFSET 0.000000 18.430702 -3.123100
					CHANNELS 3 Xrotation Yrotation Zrotation
					JOINT Head
					{
						OFFSET 0.000000 9.051102 1.034000
						CHANNELS 3 Xrotation Yrotation Zrotation
						JOINT HairB
						{
							OFFSET 0.208400 24.786102 24.822300
							CHANNELS 3 Xrotation Yrotation Zrotation
							End Site
							{
								OFFSET 0.000000 32.263779 0.000000
							}
						}
						JOINT HairA
						{
							OFFSET -7.081100 24.428299 23.196600
							CHANNELS 3 Xrotation Yrotation Zrotation
							End Site
							{
								OFFSET 0.000000 32.263779 0.000000
							}
						}
						JOINT Hat
						{
							OFFSET 16.728800 15.048294 -15.439601
							CHANNELS 3 Xrotation Yrotation Zrotation
							End Site
							{
								OFFSET 0.000000 32.263779 0.000000
							}
						}
					}
				}
				JOINT LeftShoulder
				{
					OFFSET 6.197800 13.665199 -4.064700
					CHANNELS 3 Xrotation Yrotation Zrotation
					JOINT LeftArm
					{
						OFFSET 7.778100 -0.187103 -1.709300
						CHANNELS 3 Xrotation Yrotation Zrotation
						JOINT LeftForeArm
						{
							OFFSET 22.049376 0.000000 0.000000
							CHANNELS 3 Xrotation Yrotation Zrotation
							JOINT LeftHand
							{
								OFFSET 23.009392 0.000000 0.000000
								CHANNELS 3 Xrotation Yrotation Zrotation
								JOINT LeftHandThumb1
								{
									OFFSET 3.507191 -2.063065 3.133727
									CHANNELS 3 Xrotation Yrotation Zrotation
									JOINT LeftHandThumb2
									{
										OFFSET 3.101337 -1.790558 1.790558
										CHANNELS 3 Xrotation Yrotation Zrotation
										JOINT LeftHandThumb3
										{
											OFFSET 3.058640 -1.765907 1.765906
											CHANNELS 3 Xrotation Yrotation Zrotation
											End Site
											{
												OFFSET -0.415260 3.926476 -0.049563
											}
										}
									}
								}
								JOINT LeftHandIndex1
								{
									OFFSET 11.334419 -0.901459 3.706815
									CHANNELS 3 Xrotation Yrotation Zrotation
									JOINT LeftHandIndex2
									{
										OFFSET 3.283112 0.000000 0.000000
										CHANNELS 3 Xrotation Yrotation Zrotation
										JOINT LeftHandIndex3
										{
											OFFSET 3.323853 0.000000 0.000000
											CHANNELS 3 Xrotation Yrotation Zrotation
											End Site
											{
												OFFSET -1.135597 3.097809 0.402452
											}
										}
									}
								}
								JOINT LeftHandMiddle1
								{
									OFFSET 11.335861 0.000000 0.000000
									CHANNELS 3 Xrotation Yrotation Zrotation
									JOINT LeftHandMiddle2
									{
										OFFSET 3.410492 0.000000 0.000000
										CHANNELS 3 Xrotation Yrotation Zrotation
										JOINT LeftHandMiddle3
										{
											OFFSET 3.312172 0.000000 0.000000
											CHANNELS 3 Xrotation Yrotation Zrotation
											End Site
											{
												OFFSET -1.150200 3.080154 0.400270
											}
										}
									}
								}
								JOINT LeftHandRing1
								{
									OFFSET 11.514786 -0.013176 -3.003090
									CHANNELS 3 Xrotation Yrotation Zrotation
									JOINT LeftHandRing2
									{
										OFFSET 3.053307 0.000000 0.000000
										CHANNELS 3 Xrotation Yrotation Zrotation
										JOINT LeftHandRing3
										{
											OFFSET 3.295807 0.000000 0.000000
											CHANNELS 3 Xrotation Yrotation Zrotation
											End Site
											{
												OFFSET -1.281006 3.013344 0.375733
											}
										}
									}
								}
								JOINT LeftHandPinky1
								{
									OFFSET 10.518692 -0.960396 -5.730441
									CHANNELS 3 Xrotation Yrotation Zrotation
									JOINT LeftHandPinky2
									{
										OFFSET 2.861649 0.000000 0.000000
										CHANNELS 3 Xrotation Yrotation Zrotation
										JOINT LeftHandPinky3
										{
											OFFSET 2.863380 0.000000 0.000000
											CHANNELS 3 Xrotation Yrotation Zrotation
											End Site
											{
												OFFSET -0.843597 2.711159 0.369971
											}
										}
									}
								}
							}
							JOINT LSleeve
							{
								OFFSET 6.676277 -0.344902 -1.011730
								CHANNELS 3 Xrotation Yrotation Zrotation
								End Site
								{
									OFFSET 0.000000 14.885353 0.000000
								}
							}
						}
					}
				}
				JOINT RightShoulder
				{
					OFFSET -6.197800 13.665199 -4.064700
					CHANNELS 3 Xrotation Yrotation Zrotation
					JOINT RightArm
					{
						OFFSET -7.778100 -0.187103 -1.709300
						CHANNELS 3 Xrotation Yrotation Zrotation
						JOINT RightForeArm
						{
							OFFSET -22.049376 0.000000 0.000000
							CHANNELS 3 Xrotation Yrotation Zrotation
							JOINT RightHand
							{
								OFFSET -23.009392 0.000000 0.000000
								CHANNELS 3 Xrotation Yrotation Zrotation
								JOINT RightHandThumb1
								{
									OFFSET -3.507191 -2.063065 3.133727
									CHANNELS 3 Xrotation Yrotation Zrotation
									JOINT RightHandThumb2
									{
										OFFSET -3.101337 -1.790558 1.790558
										CHANNELS 3 Xrotation Yrotation Zrotation
										JOINT RightHandThumb3
										{
											OFFSET -3.058640 -1.765907 1.765906
											CHANNELS 3 Xrotation Yrotation Zrotation
											End Site
											{
												OFFSET 0.415260 3.926476 -0.049563
											}
										}
									}
								}
								JOINT RightHandIndex1
								{
									OFFSET -11.334419 -0.901459 3.706815
									CHANNELS 3 Xrotation Yrotation Zrotation
									JOINT RightHandIndex2
									{
										OFFSET -3.283112 0.000000 0.000000
										CHANNELS 3 Xrotation Yrotation Zrotation
										JOINT RightHandIndex3
										{
											OFFSET -3.323853 0.000000 0.000000
											CHANNELS 3 Xrotation Yrotation Zrotation
											End Site
											{
												OFFSET 1.135597 3.097809 0.402452
											}
										}
									}
								}
								JOINT RightHandMiddle1
								{
									OFFSET -11.335861 0.000000 0.000000
									CHANNELS 3 Xrotation Yrotation Zrotation
									JOINT RightHandMiddle2
									{
										OFFSET -3.410492 0.000000 0.000000
										CHANNELS 3 Xrotation Yrotation Zrotation
										JOINT RightHandMiddle3
										{
											OFFSET -3.312172 0.000000 0.000000
											CHANNELS 3 Xrotation Yrotation Zrotation
											End Site
											{
												OFFSET 1.150200 3.080154 0.400270
											}
										}
									}
								}
								JOINT RightHandRing1
								{
									OFFSET -11.514786 -0.013176 -3.003090
									CHANNELS 3 Xrotation Yrotation Zrotation
									JOINT RightHandRing2
									{
										OFFSET -3.053307 0.000000 0.000000
										CHANNELS 3 Xrotation Yrotation Zrotation
										JOINT RightHandRing3
										{
											OFFSET -3.295807 0.000000 0.000000
											CHANNELS 3 Xrotation Yrotation Zrotation
											End Site
											{
												OFFSET 1.281006 3.013344 0.375733
											}
										}
									}
								}
								JOINT RightHandPinky1
								{
									OFFSET -10.518692 -0.960396 -5.730441
									CHANNELS 3 Xrotation Yrotation Zrotation
									JOINT RightHandPinky2
									{
										OFFSET -2.861649 0.000000 0.000000
										CHANNELS 3 Xrotation Yrotation Zrotation
										JOINT RightHandPinky3
										{
											OFFSET -2.863380 0.000000 0.000000
											CHANNELS 3 Xrotation Yrotation Zrotation
											End Site
											{
												OFFSET 0.843597 2.711159 0.369971
											}
										}
									}
								}
							}
							JOINT RSleeve
							{
								OFFSET -6.676277 -0.344902 -1.011730
								CHANNELS 3 Xrotation Yrotation Zrotation
								End Site
								{
									OFFSET 0.000000 14.885353 0.000000
								}
							}
						}
					}
				}
				JOINT Backpack
				{
					OFFSET 0.000000 -2.471497 36.677502
					CHANNELS 3 Xrotation Yrotation Zrotation
					End Site
					{
						OFFSET 0.000000 20.427315 0.000000
					}
				}
				JOINT Hood
				{
					OFFSET 0.000000 18.754097 -10.431000
					CHANNELS 3 Xrotation Yrotation Zrotation
					JOINT Hood1
					{
						OFFSET 0.000000 -5.011002 -7.685901
						CHANNELS 3 Xrotation Yrotation Zrotation
						End Site
						{
							OFFSET 0.000000 9.175140 0.000000
						}
					}
				}
				JOINT LHoodieString
				{
					OFFSET 5.250500 16.397697 3.089900
					CHANNELS 3 Xrotation Yrotation Zrotation
					JOINT LHoodieString1
					{
						OFFSET 0.257700 -6.364304 3.694600
						CHANNELS 3 Xrotation Yrotation Zrotation
						JOINT LHoodieString2
						{
							OFFSET 0.000000 -9.643799 2.679100
							CHANNELS 3 Xrotation Yrotation Zrotation
							End Site
							{
								OFFSET 0.000000 10.009018 0.000000
							}
						}
					}
				}
				JOINT RHoodieString
				{
					OFFSET -5.250500 16.397697 3.089900
					CHANNELS 3 Xrotation Yrotation Zrotation
					JOINT RHoodieString1
					{
						OFFSET -0.257700 -6.364304 3.694600
						CHANNELS 3 Xrotation Yrotation Zrotation
						JOINT RHoodieString2
						{
							OFFSET 0.000000 -9.643799 2.679100
							CHANNELS 3 Xrotation Yrotation Zrotation
							End Site
							{
								OFFSET 0.000000 10.009018 0.000000
							}
						}
					}
				}
			}
			JOINT LBackpack_Strap
			{
				OFFSET 15.223200 -7.719803 -6.610900
				CHANNELS 3 Xrotation Yrotation Zrotation
				End Site
				{
					OFFSET 0.000000 16.040596 0.000000
				}
			}
			JOINT RBackpack_Strap
			{
				OFFSET -15.223000 -7.719803 -6.610900
				CHANNELS 3 Xrotation Yrotation Zrotation
				End Site
				{
					OFFSET 0.000000 16.040596 0.000000
				}
			}
		}
	}
	JOINT BoyFacialAnim_Joint
	{
		OFFSET 1.000000 -82.208099 -1.550900
		CHANNELS 3 Xrotation Yrotation Zrotation
		End Site
		{
			OFFSET 0.000000 30.012791 0.000000
		}
	}
}
MOTION
Frames: 4
Frame Time: 0.016667
0.087327 9.584671 -3.320045 -87.562486 -3.516908 -0.190865 -0.000000 -0.000000 0.000000 -24.893294 15.312936 -6.359245 26.254393 -6.884058 -9.656249 0.319503 8.341097 6.626043 -0.000000 0.000000 0.000001 -0.000000 0.000000 0.000001 0.000000 0.000000 -0.000002 -5.533023 -10.242539 -1.068564 1.891201 -9.808917 4.827579 14.679951 -3.711582 28.164627 -0.000000 -0.000000 -0.000003 -0.000000 -0.000000 -0.000003 0.000000 0.000000 -0.000000 0.645681 1.473169 -1.885062 -2.712462 0.550123 0.069934 -2.709994 0.572754 0.085569 3.954688 -0.162521 0.200794 7.663472 -2.706720 7.904900 -0.000000 -0.000000 0.000000 -0.000000 -0.000000 0.000000 -0.000000 -0.000000 0.000000 1.279308 -13.498957 -1.883384 20.483963 -1.014536 -70.993471 0.000006 -137.491489 -0.000006 -17.619173 18.840489 -43.362812 -7.220047 -16.942342 15.004578 7.558192 31.509541 -3.040783 0.000000 -0.000000 0.000001 -0.024119 4.029256 2.883328 0.551247 2.482842 -25.032245 0.000001 -0.000001 -0.000002 -0.237395 3.164803 12.085514 0.825496 3.000284 -30.761089 -0.000001 0.000000 -0.000002 -0.227149 2.636215 15.396447 0.647037 2.678217 -27.159655 0.000000 0.000000 -0.000000 -1.716315 2.384080 10.103022 0.425827 2.194587 -21.959560 -0.000001 0.000001 0.000002 0.000001 0.000001 -0.000002 0.515810 6.973514 0.064737 15.875315 6.901679 66.846515 0.000021 133.088025 -0.000020 -16.503250 -12.599694 49.917399 -19.372334 9.812735 -17.628160 16.805781 -33.149111 6.482065 0.000000 -0.000002 0.000001 -0.578710 -1.290239 19.415301 -0.000007 0.000002 0.000000 -0.000002 0.000000 0.000002 0.900184 -7.884230 9.062698 0.294487 -1.631371 20.463682 -0.000002 0.000000 -0.000000 0.740093 -10.091161 4.911412 1.354380 -3.285244 44.799989 -0.000001 0.000001 -0.000001 0.507054 -5.672357 8.465992 1.111094 -3.020984 40.379044 0.000000 -0.000001 0.000000 -0.000001 0.000002 0.000001 -0.000000 -0.000000 0.000000 -0.000000 -0.000000 0.000000 -0.000000 -0.000000 0.000000 -0.000000 -0.000000 0.000000 -0.000000 -0.000000 0.000000 0.000000 -0.000000 0.000000 -0.000000 -0.000000 0.000000 -0.000000 -0.000000 0.000000 0.000000 -0.000000 0.000000 -0.000000 -0.000000 -0.000000 -0.000000 -0.000000 -0.000000 -0.000000 -0.000000 0.000000 
0.087587 9.583290 -3.319481 -87.566877 -3.517702 -0.191770 -0.000000 -0.000000 -0.000000 -24.891670 15.312073 -6.357870 26.256514 -6.884131 -9.656581 0.324629 8.335573 6.616021 -0.000000 -0.000001 -0.000001 -0.000000 -0.000001 -0.000001 -0.000000 0.000000 0.000002 -5.534986 -10.244616 -1.068167 1.892234 -9.808609 4.826985 14.681198 -3.715392 28.160962 -0.000000 0.000000 -0.000003 -0.000000 0.000000 -0.000003 -0.000000 -0.000003 0.000000 0.652493 1.482294 -1.881038 -2.713526 0.552117 0.068064 -2.711044 0.574704 0.083783 3.956770 -0.164480 0.200224 7.651815 -2.723803 7.913647 0.000000 0.000000 -0.000000 0.000000 0.000000 -0.000000 0.000000 0.000000 -0.000000 1.279891 -13.506575 -1.882615 20.471332 -1.017566 -70.987140 0.000018 -137.488225 0.000018 -17.622332 18.842183 -43.369536 -7.219504 -16.942873 15.007539 7.558193 31.509541 -3.040785 -0.000000 0.000000 0.000002 -0.024115 4.029257 2.883333 0.551030 2.482376 -25.027237 -0.000001 -0.000000 -0.000002 -0.237399 3.164800 12.085523 0.825495 3.000284 -30.761072 -0.000001 -0.000001 -0.000000 -0.227151 2.636217 15.396433 0.646786 2.677723 -27.154271 -0.000000 0.000000 -0.000002 -1.716319 2.384079 10.103030 0.425638 2.194113 -21.954533 -0.000001 -0.000001 0.000001 0.000000 -0.000001 0.000001 0.515557 6.970727 0.064774 15.874029 6.887359 66.861179 0.000042 133.090430 -0.000041 -16.498018 -12.596067 49.928270 -19.372336 9.812734 -17.628158 16.805781 -33.149114 6.482063 0.000000 0.000001 0.000003 -0.578708 -1.290239 19.415298 -0.000003 0.000002 -0.000001 -0.000002 0.000000 0.000002 0.900186 -7.884231 9.062700 0.294489 -1.631371 20.463682 0.000002 0.000000 -0.000000 0.740091 -10.091161 4.911413 1.354379 -3.285244 44.799986 0.000000 0.000000 0.000002 0.507056 -5.672358 8.465993 1.111092 -3.020985 40.379044 0.000002 0.000001 -0.000001 0.000001 -0.000001 -0.000001 0.000000 -0.000000 -0.000000 0.000000 -0.000000 -0.000000 0.000000 -0.000000 -0.000000 0.000000 -0.000000 -0.000000 0.000000 -0.000000 -0.000000 0.000000 -0.000000 -0.000000 0.000000 -0.000000 -0.000000 0.000000 -0.000000 -0.000000 0.000000 -0.000000 -0.000000 0.000000 -0.000000 -0.000000 0.000000 -0.000000 -0.000000 -0.000000 -0.000000 -0.000000 
0.088071 9.582169 -3.318741 -87.567130 -3.516979 -0.193607 -0.000000 -0.000000 -0.000000 -24.894738 15.312106 -6.355246 26.259636 -6.885575 -9.657543 0.329348 8.333883 6.609980 -0.000000 0.000000 -0.000001 -0.000000 0.000000 -0.000001 -0.000000 -0.000000 0.000001 -5.536513 -10.246745 -1.067602 1.892475 -9.808200 4.826322 14.682511 -3.718956 28.157330 0.000002 0.000000 -0.000004 0.000002 0.000000 -0.000004 -0.000000 -0.000000 0.000000 0.655073 1.488390 -1.875611 -2.714820 0.553227 0.066521 -2.712320 0.575769 0.082299 3.958935 -0.166341 0.200116 7.643615 -2.740683 7.924392 -0.000001 0.000000 -0.000000 -0.000001 0.000000 -0.000000 -0.000001 0.000000 -0.000000 1.280316 -13.511002 -1.881051 20.463071 -1.020422 -70.982461 0.000038 -137.485096 0.000033 -17.625470 18.842375 -43.375516 -7.217990 -16.944362 15.015877 7.558193 31.509541 -3.040792 0.000000 -0.000000 -0.000001 -0.024116 4.029257 2.883321 0.550413 2.481059 -25.013018 -0.000000 0.000000 -0.000002 -0.237398 3.164807 12.085507 0.825494 3.000282 -30.761072 -0.000001 0.000000 -0.000002 -0.227145 2.636219 15.396435 0.646069 2.676337 -27.138969 0.000001 0.000001 0.000001 -1.716319 2.384081 10.103025 0.425096 2.192758 -21.940279 -0.000001 -0.000000 -0.000000 0.000000 -0.000001 0.000000 0.515696 6.970294 0.064801 15.871032 6.874121 66.875270 0.000064 133.093722 -0.000057 -16.491417 -12.597511 49.941739 -19.372337 9.812736 -17.628160 16.805788 -33.149111 6.482057 0.000001 -0.000000 0.000001 -0.578709 -1.290238 19.415299 0.000001 0.000002 -0.000001 0.000002 -0.000000 0.000002 0.900181 -7.884232 9.062699 0.294489 -1.631370 20.463687 -0.000001 0.000002 -0.000002 0.740093 -10.091161 4.911408 1.354380 -3.285242 44.799989 0.000002 -0.000001 0.000000 0.507052 -5.672359 8.465995 1.111095 -3.020984 40.379044 0.000000 -0.000001 0.000002 -0.000001 -0.000000 0.000001 -0.000000 0.000000 -0.000000 -0.000000 0.000000 -0.000000 -0.000000 0.000000 -0.000000 -0.000000 0.000000 -0.000000 -0.000000 0.000000 0.000000 0.000000 0.000000 0.000000 -0.000000 0.000000 -0.000000 -0.000000 0.000000 0.000000 0.000000 0.000000 0.000000 -0.000000 -0.000000 0.000000 -0.000000 -0.000000 0.000000 -0.000000 -0.000000 -0.000000 
0.088553 9.581200 -3.317795 -87.564958 -3.514374 -0.195401 -0.000000 0.000000 -0.000000 -24.900592 15.313096 -6.353177 26.264354 -6.886269 -9.657678 0.332878 8.334280 6.609055 -0.000000 0.000001 0.000001 -0.000000 0.000001 0.000002 0.000000 0.000000 0.000001 -5.537823 -10.248901 -1.066953 1.892321 -9.807641 4.825611 14.683802 -3.722378 28.153751 -0.000000 0.000002 -0.000003 -0.000000 0.000002 -0.000003 -0.000000 0.000000 0.000001 0.655140 1.491910 -1.869868 -2.716207 0.553642 0.065173 -2.713704 0.576142 0.080983 3.961072 -0.168044 0.200409 7.637757 -2.756497 7.936148 -0.000000 0.000000 0.000000 -0.000000 0.000000 0.000000 -0.000000 0.000000 0.000000 1.280699 -13.512916 -1.878505 20.458063 -1.023378 -70.979421 0.000015 -137.481763 0.000017 -17.628587 18.841792 -43.381281 -7.215857 -16.946468 15.027610 7.558192 31.509541 -3.040788 0.000000 0.000001 0.000004 -0.024119 4.029258 2.883329 0.549552 2.479212 -24.993088 -0.000001 -0.000001 -0.000000 -0.237395 3.164800 12.085532 0.825491 3.000287 -30.761079 -0.000002 0.000000 -0.000002 -0.227149 2.636215 15.396440 0.645072 2.674381 -27.117499 -0.000000 0.000000 0.000001 -1.716314 2.384080 10.103031 0.424325 2.190858 -21.920254 -0.000002 0.000001 0.000003 -0.000001 0.000001 0.000001 0.516035 6.971516 0.064826 15.867199 6.862416 66.888876 0.000045 133.097164 -0.000039 -16.483943 -12.601870 49.956451 -19.372334 9.812734 -17.628160 16.805788 -33.149114 6.482068 -0.000000 -0.000000 0.000001 -0.578710 -1.290239 19.415301 -0.000002 0.000003 -0.000003 -0.000001 -0.000000 0.000004 0.900182 -7.884232 9.062703 0.294487 -1.631370 20.463686 0.000000 0.000000 0.000002 0.740093 -10.091161 4.911415 1.354377 -3.285246 44.799986 0.000003 -0.000001 -0.000001 0.507055 -5.672359 8.465999 1.111095 -3.020985 40.379044 0.000002 0.000000 0.000000 -0.000000 -0.000001 -0.000000 0.000000 -0.000000 -0.000000 0.000000 -0.000000 -0.000000 0.000000 -0.000000 -0.000000 0.000000 -0.000000 -0.000000 0.000000 -0.000000 -0.000000 0.000000 -0.000000 0.000000 0.000000 -0.000000 -0.000000 0.000000 -0.000000 -0.000000 0.000000 -0.000000 0.000000 -0.000000 -0.000000 -0.000000 -0.000000 -0.000000 -0.000000 -0.000000 0.000000 -0.000000 
